<?xml version="1.0" encoding="UTF-8" standalone="no"?>
<svg
   xmlns:dc="http://purl.org/dc/elements/1.1/"
   xmlns:cc="http://creativecommons.org/ns#"
   xmlns:rdf="http://www.w3.org/1999/02/22-rdf-syntax-ns#"
   xmlns:svg="http://www.w3.org/2000/svg"
   xmlns="http://www.w3.org/2000/svg"
   xmlns:sodipodi="http://sodipodi.sourceforge.net/DTD/sodipodi-0.dtd"
   xmlns:inkscape="http://www.inkscape.org/namespaces/inkscape"
   width="420mm"
   height="420mm"
   viewBox="0 0 420 420"
   version="1.1"
   id="svg8"
   inkscape:version="1.0.2 (e86c870879, 2021-01-15, custom)"
   sodipodi:docname="add_equipment.svg">
  <defs
     id="defs2">
    <rect
       x="283.10416"
       y="503.46429"
       width="32.316963"
       height="36.285713"
       id="rect917" />
  </defs>
  <sodipodi:namedview
     id="base"
     pagecolor="#ffffff"
     bordercolor="#666666"
     borderopacity="1.0"
     inkscape:pageopacity="0.0"
     inkscape:pageshadow="2"
     inkscape:zoom="0.175"
     inkscape:cx="1662.0658"
     inkscape:cy="1889.5538"
     inkscape:document-units="mm"
     inkscape:current-layer="layer1"
     inkscape:document-rotation="0"
     showgrid="false"
     inkscape:snap-bbox="true"
     inkscape:bbox-paths="true"
     inkscape:bbox-nodes="true"
     inkscape:snap-bbox-edge-midpoints="true"
     inkscape:snap-bbox-midpoints="true"
     inkscape:snap-intersection-paths="true"
     inkscape:object-nodes="true"
     inkscape:snap-smooth-nodes="true"
     inkscape:snap-midpoints="true"
     inkscape:snap-object-midpoints="true"
     inkscape:snap-center="true"
     inkscape:snap-global="false"
     inkscape:window-width="1920"
     inkscape:window-height="1137"
     inkscape:window-x="-8"
     inkscape:window-y="-8"
     inkscape:window-maximized="1" />
  <metadata
     id="metadata5">
    <rdf:RDF>
      <cc:Work
         rdf:about="">
        <dc:format>image/svg+xml</dc:format>
        <dc:type
           rdf:resource="http://purl.org/dc/dcmitype/StillImage" />
        <dc:title />
      </cc:Work>
    </rdf:RDF>
  </metadata>
  <g
     inkscape:label="Слой 1"
     inkscape:groupmode="layer"
     id="layer1">
    <g
       aria-label="+"
       transform="matrix(16.436981,0,0,16.436981,-2140.634,-5640.7671)"
       id="text915"
       style="font-size:19.05px;line-height:1.25;font-family:'Adobe Ming Std';-inkscape-font-specification:'Adobe Ming Std';letter-spacing:0px;word-spacing:0px;white-space:pre;shape-inside:url(#rect917)">
      <g
         id="g933"
         transform="translate(-150.69852,-171.26531)">
        <path
           style="fill:#ffffff;stroke-width:0.264583"
           d="m 354.50939,597.48593 c -0.37122,-3.70577 1.88933,-6.79922 7.13799,-9.76803 1.70267,-0.96308 3.20675,-1.67966 6.1262,-2.91867 1.22271,-0.51895 2.56531,-1.09413 2.98353,-1.27826 1.04535,-0.46016 3.85956,-1.22826 5.20051,-1.4193 2.84515,-0.40537 5.14719,-0.12461 7.33875,0.895 1.17827,0.5482 1.60492,0.83856 2.46872,1.68014 1.4045,1.36837 1.96023,2.22522 2.58116,3.97978 0.6065,1.7155 0.75936,2.9043 0.58929,4.60007 -0.29595,2.95096 -1.84649,5.27272 -4.05199,6.06743 -0.97811,0.35247 -5.73076,1.56886 -5.88945,1.50737 -0.10256,-0.0397 -1.11899,-3.5522 -1.05907,-3.65979 0.006,-0.0118 1.17453,-0.30943 2.59559,-0.66164 1.97672,-0.48996 2.69345,-0.71629 3.05073,-0.96338 1.59356,-1.10208 1.96072,-3.98339 0.77493,-6.08139 -0.69478,-1.22927 -1.47818,-1.93487 -2.89774,-2.61004 -2.86485,-1.36253 -6.09076,-1.02534 -11.33769,1.18511 -7.65409,3.22457 -10.8633,5.38823 -11.56969,7.80034 -0.26957,0.92044 -0.21186,1.41804 0.27873,2.40369 0.50561,1.01583 1.09716,1.59425 2.13407,2.08668 1.51724,0.72057 6.01683,2.82151 6.23085,-0.33605 l 0.87608,-0.22804 0.40384,1.6391 c 0.1909,0.77475 0.43706,1.74487 0.47765,1.87413 0.0619,0.19762 -0.0176,0.25669 -0.4993,0.37083 -0.31523,0.0747 -1.22993,0.32411 -2.03267,0.55429 -1.80022,0.5162 -3.20509,0.65848 -4.57338,0.46313 -3.78646,-0.54057 -6.98602,-3.67245 -7.33763,-7.18246 z m 2.08979,2.14694 c 0.49395,-0.17585 0.81934,1.10823 1.2109,1.4699 1.26243,1.16602 3.75321,2.13781 5.2401,2.04441 0.35766,-0.0225 0.41199,-0.0632 0.34284,-0.25745 -0.0561,-0.1577 -0.44107,-0.27295 -1.21556,-0.36397 -4.27755,-0.50277 -7.1043,-4.76604 -5.47596,-8.2588 1.29734,-2.78278 4.54241,-5.00014 11.96962,-8.17887 6.85076,-2.93202 10.73218,-3.38725 14.39226,-1.68795 1.46176,0.67865 2.79909,1.8695 3.63319,3.23523 0.64728,1.05981 0.86215,1.65695 1.06146,2.94993 0.3218,2.08701 -0.20395,4.06862 -1.44008,5.4279 -0.23033,0.25328 -0.49266,0.48682 -0.58295,0.51896 -0.0902,0.0321 -0.11216,0.20445 -0.0486,0.38289 0.15014,0.42173 0.32203,0.34775 1.1186,-0.48135 1.19972,-1.24877 1.80902,-3.50336 1.56052,-5.77433 -0.16278,-1.48773 -1.09314,-3.74366 -1.96491,-4.76451 -2.24243,-2.62592 -5.40114,-3.63999 -9.60011,-3.08201 -1.97737,0.26276 -3.99243,0.90354 -7.36324,2.34147 -6.71628,2.86508 -9.64414,4.55976 -11.82296,6.84335 -1.10035,1.15327 -1.70514,2.32929 -1.87409,3.64421 -0.20213,1.57308 -0.51411,4.47988 0.85899,3.99104 z m 10.85491,3.25291 c 0.27379,-0.0922 0.43056,-0.22759 0.43416,-0.37531 0.009,-0.35406 -0.22904,-0.3914 -1.13523,-0.17841 -0.80335,0.18888 -0.8296,0.20662 -0.76588,0.51856 0.0558,0.2734 0.14058,0.31198 0.5522,0.25114 0.26744,-0.0395 0.67907,-0.13667 0.91475,-0.21598 z m 13.34508,-3.44999 c 1.70901,-0.3817 1.70174,-0.37832 1.57536,-0.73331 -0.10192,-0.28628 -0.18126,-0.28732 -1.38706,-0.018 -1.709,0.3817 -1.70173,0.37831 -1.57535,0.73331 0.10192,0.28627 0.18126,0.2873 1.38705,0.018 z m 2.49952,-1.01264 c 0.19358,0.0919 0.42658,0.14058 0.51776,0.10811 0.31914,-0.11361 0.59814,-0.67036 0.48923,-0.97628 -0.23983,-0.67366 -1.19119,-0.66741 -1.37767,0.009 -0.1313,0.47626 -0.0529,0.65795 0.37071,0.85911 z m -14.45743,3.14721 c -0.23462,-0.89575 -0.39723,-1.69036 -0.3614,-1.76581 0.0358,-0.0755 0.62416,-0.40813 1.3074,-0.73934 1.2133,-0.58811 1.24449,-0.59596 1.3375,-0.33646 0.0521,0.14625 0.34269,1.18112 0.64522,2.29991 0.58149,2.1507 0.58314,2.12994 -0.17078,2.15649 -0.23028,0.008 -0.80525,0.038 -1.2777,0.0664 -0.47245,0.0284 -0.90281,0.0282 -0.95635,-4.6e-4 -0.0536,-0.0286 -0.28904,-0.78505 -0.52394,-1.68069 z m 3.03006,-1.08957 -0.6421,-2.44011 0.55646,-0.1981 0.55646,-0.19811 0.19162,0.7726 c 0.0849,0.34217 0.66493,3.74752 0.71051,2.70821 l 0.5189,1.93561 -0.53738,0.23622 c -0.38695,0.17013 -0.54468,0.21068 -0.62488,-0.07 -0.0482,-0.16843 -1.19504,-4.05375 -0.7296,-2.74638 z m 1.37681,-0.16114 c -0.3828,-1.07525 -0.51358,-2.07641 -0.51375,-2.15678 -2.1e-4,-0.0823 0.32548,-0.24025 0.74597,-0.36175 0.58849,-0.17002 0.76237,-0.17004 0.82234,-3e-4 0.13309,0.37978 1.16536,4.47101 1.13864,4.51731 -0.0142,0.0245 -0.37175,0.13553 -0.79503,0.24557 -0.60415,0.15787 -0.78164,0.15439 -0.827,-0.0162 -0.0317,-0.1195 -0.27268,-1.3894 -0.57119,-2.22789 z m 1.80613,-0.75269 -0.62213,-2.37409 0.57716,-0.20548 0.57716,-0.20547 0.10034,0.51262 c 0.0428,0.21862 0.64116,3.96494 0.70947,2.74515 l 0.60912,2.23249 -0.55758,0.19851 c -0.406,0.14454 -0.56351,0.17832 -0.66451,-0.16555 -0.0589,-0.20022 -0.62959,-1.01163 -0.72907,-2.73816 z m 1.4824,0.16684 c -0.33197,-0.93246 -0.48663,-1.9087 -0.55118,-2.1069 -0.11469,-0.35197 -0.0993,-0.36678 0.66131,-0.63756 0.6553,-0.2333 0.79142,-0.24121 0.85902,-0.0499 0.14371,0.40964 1.16933,4.48328 1.14207,4.54068 -0.0146,0.0308 -0.37278,0.14015 -0.79572,0.24359 -0.59614,0.14536 -0.78182,0.13909 -0.82543,-0.0279 -0.0309,-0.11849 -0.23702,-1.25124 -0.49005,-1.96197 z"
           id="path858-0"
           sodipodi:nodetypes="ssssssscscssssssssssscssssssscsssssssssssssssssssscsssscssssssssssssscssssssssssscssscssssscssssssssscssssssscsssssssc"
           transform="matrix(0.34977963,0,0,0.34977963,170.33,327.64855)" />
        <path
           style="fill:#ffffff;stroke-width:0.264583"
           d="m 334.56906,604.36687 c -0.21828,-0.14108 -0.26441,-0.25832 -0.10252,-0.26054 0.4857,-0.007 2.24813,-1.52664 3.07691,-2.65361 0.42656,-0.58002 0.7309,-1.0546 0.67632,-1.0546 -0.29944,0 -2.18821,1.10503 -3.36383,1.96799 -1.94414,1.42714 -3.05862,1.51599 -4.91365,0.39172 -0.80225,-0.4862 -1.45864,-0.95261 -1.45864,-1.03643 0,-0.0838 0.37291,-0.18081 0.82869,-0.21553 1.07559,-0.082 2.1252,-0.84566 3.17896,-2.31298 0.59036,-0.82206 1.28616,-1.38047 2.29642,-1.84298 0.79718,-0.36497 1.50846,-0.60452 1.58062,-0.53237 0.11221,0.11221 -0.42274,1.71177 -1.13815,3.40323 -0.17489,0.41349 -0.0934,0.47138 0.55875,0.39687 0.91257,-0.10427 1.58359,-1.32538 1.99514,-3.63077 0.22921,-1.28394 0.47276,-1.70384 1.81019,-3.12081 1.73859,-1.84201 1.85396,-1.79592 1.85396,0.74041 0,1.22187 -0.17707,1.92418 -0.79253,3.14341 -0.43589,0.86349 -1.0414,1.70317 -1.34558,1.86597 -1.0519,0.56295 -0.29036,0.55253 0.81456,-0.0111 l 1.10898,-0.56576 -0.18916,0.87805 c -0.39069,1.81342 -1.65703,3.5932 -3.08886,4.34123 -0.81621,0.4264 -2.79658,0.48995 -3.38658,0.10866 z m 7.01939,-2.08299 c 0.37266,-0.74194 0.7511,-1.9699 0.84098,-2.72875 0.14401,-1.21595 0.34463,-1.57456 1.68974,-3.02046 0.83948,-0.90236 1.59397,-1.57303 1.67665,-1.49034 0.0827,0.0827 0.15033,0.96782 0.15033,1.96696 0,2.51918 -0.92886,4.34782 -2.77813,5.46928 -2.24919,1.36401 -2.35674,1.35062 -1.57957,-0.19669 z m -16.57326,-1.59062 c -0.5252,-0.26263 -1.21518,-0.65979 -1.53328,-0.8826 -0.49969,-0.35001 -0.51981,-0.42759 -0.14792,-0.57028 0.23674,-0.0909 0.77789,-0.16518 1.20255,-0.16518 0.84043,0 0.9872,-0.35187 0.39413,-0.94493 -0.24853,-0.24853 -0.95566,-0.37799 -2.06476,-0.37799 -1.56154,0 -1.74656,-0.0638 -2.49175,-0.85989 -0.86073,-0.91946 -2.33637,-2.84689 -2.17452,-2.84028 0.0537,0.003 0.5738,0.17555 1.15588,0.38526 0.58209,0.20968 1.7485,0.38651 2.59204,0.39288 l 1.53371,0.0116 -0.47538,-0.65315 c -0.28071,-0.38568 -0.74622,-0.65714 -1.13683,-0.66294 -1.09488,-0.0161 -2.66887,-0.54374 -3.7428,-1.25444 -1.11097,-0.7352 -1.54485,-1.77639 -1.54739,-3.71332 l -10e-4,-1.12451 1.05314,1.05315 c 0.57923,0.57923 1.71032,1.42401 2.51354,1.87733 0.80322,0.45331 1.4604,0.90916 1.4604,1.01295 0,0.10383 0.18405,0.41987 0.40899,0.70237 0.38328,0.4813 0.40363,0.44291 0.32373,-0.6109 -0.0469,-0.61846 -0.0487,-1.12448 -0.004,-1.12448 0.0447,0 0.45055,0.42063 0.90194,0.93475 0.4514,0.51411 1.47212,1.31778 2.26827,1.78593 0.97125,0.57111 1.67339,1.23537 2.1339,2.01872 l 0.68636,1.16753 -1.44136,-0.16407 c -1.34458,-0.15303 -1.40582,-0.13613 -0.91218,0.25191 0.36847,0.28964 0.42823,0.45376 0.19679,0.54049 -0.78152,0.29279 0.0952,0.60849 1.68981,0.60849 1.21654,0 1.84578,0.12271 2.14049,0.41741 0.22958,0.2296 0.6472,0.35734 0.92805,0.28389 0.3459,-0.0905 0.46787,-0.0222 0.3781,0.2118 -0.0729,0.18995 -0.009,0.46892 0.14211,0.61995 0.36596,0.36597 -3.52966,2.17498 -4.65271,2.16059 -0.45245,-0.006 -1.25235,-0.22543 -1.77755,-0.48808 z m 22.28684,-3.3184 c -0.007,-0.95822 -0.14217,-2.22057 -0.2996,-2.80522 -0.26505,-0.98428 -0.21887,-1.18256 0.62371,-2.67769 l 0.90995,-1.61467 0.40758,0.62865 c 0.6385,0.98483 1.04894,3.02461 0.86091,4.27849 -0.1452,0.9683 -1.04243,2.40184 -2.40688,3.84556 -0.0453,0.0479 -0.0883,-0.69691 -0.0957,-1.65512 z m -4.43004,-1.87214 c 0.10257,-0.80487 0.0199,-1.99531 -0.21117,-3.0421 l -0.37968,-1.71979 0.84031,-1.65267 c 0.46218,-0.90898 0.93385,-1.65312 1.04816,-1.65365 0.49026,-0.003 1.31901,2.57059 1.33255,4.13695 0.0151,1.74199 -0.12569,2.05925 -1.80289,4.06355 l -0.99581,1.19001 z m 8.1088,-3.14741 c -0.18884,-0.67445 -0.67225,-1.74492 -1.07426,-2.37881 l -0.73092,-1.15255 0.54557,-1.68738 c 0.30006,-0.92808 0.58986,-1.85741 0.64398,-2.06521 0.12279,-0.47136 1.18686,1.05952 1.62334,2.3355 0.47127,1.37772 0.36878,4.23596 -0.18945,5.28352 l -0.47493,0.89122 z m -26.12115,-1.34268 c -0.59038,-0.50533 -1.33454,-1.47431 -1.65369,-2.15326 l -0.58027,-1.23449 0.57999,-1.55088 c 0.319,-0.85299 0.66966,-1.55088 0.77925,-1.55088 0.10959,0 0.26602,0.33387 0.34763,0.74194 0.0816,0.40804 0.57275,1.37253 1.09141,2.14323 0.81605,1.21267 0.94302,1.6115 0.94302,2.96225 0,0.85849 -0.0976,1.56091 -0.21696,1.56091 -0.11932,0 -0.69999,-0.41346 -1.29038,-0.91882 z m 21.88026,-1.02999 c 0,-0.34425 -0.42079,-1.46704 -0.93509,-2.49505 l -0.93508,-1.86912 0.5495,-1.67217 c 0.30223,-0.91967 0.61077,-1.84846 0.68565,-2.06396 0.0914,-0.26303 0.40758,0.0415 0.96177,0.92604 0.70882,1.13141 0.84249,1.62867 0.94481,3.51459 0.0937,1.72784 0.0187,2.41964 -0.35179,3.24115 -0.53032,1.17604 -0.91977,1.35324 -0.91977,0.41852 z m -27.41563,-1.87209 c -1.36966,-1.19975 -2.28385,-2.68219 -2.28385,-3.70348 0,-0.30697 0.27223,-1.19094 0.60495,-1.96437 l 0.60494,-1.40624 0.44506,1.17245 c 0.24479,0.64487 0.82633,1.72665 1.29232,2.40393 0.77242,1.12268 0.84034,1.38393 0.76901,2.95764 l -0.0783,1.72622 z m 33.91794,-1.06021 c -0.0941,-0.50181 -0.71985,-1.6423 -1.39048,-2.53442 -1.16903,-1.55517 -1.20411,-1.65325 -0.85047,-2.37837 0.35629,-0.73059 0.38686,-0.74054 0.89801,-0.29218 0.29104,0.2553 0.99086,0.95306 1.55516,1.5506 l 1.02599,1.0864 -0.32834,1.74017 c -0.1806,0.9571 -0.42068,1.74016 -0.53353,1.74016 -0.11285,0 -0.2822,-0.41055 -0.37634,-0.91236 z m -27.24844,-1.25624 c -1.06234,-2.13186 -0.94451,-3.2325 0.52602,-4.91356 0.66613,-0.76147 1.29435,-1.38451 1.39605,-1.38451 0.10171,0 0.14185,0.45159 0.0892,1.00351 -0.0526,0.55195 0.0769,1.66445 0.28782,2.47219 l 0.38351,1.46868 -0.82397,1.35599 c -0.45319,0.74578 -0.90263,1.35969 -0.99875,1.36427 -0.0961,0.005 -0.48308,-0.61042 -0.8599,-1.36657 z m 31.62268,0.0753 c -0.28058,-0.17769 -0.33607,-0.68281 -0.23309,-2.12206 0.0743,-1.03889 0.21949,-1.97321 0.32256,-2.07629 0.10307,-0.10308 0.65445,0.31329 1.22528,0.92525 1.22334,1.31148 1.38776,2.44554 0.44983,3.1025 -0.65963,0.46202 -1.21897,0.5161 -1.76458,0.1706 z m -8.48498,-1.97641 c -0.18306,-0.55467 -0.85558,-1.77202 -1.49449,-2.70526 -1.26543,-1.84835 -1.3443,-2.13447 -0.79527,-2.88533 0.3451,-0.47194 0.46098,-0.40256 1.99467,1.19428 l 1.62828,1.69534 -0.2584,1.20256 c -0.14212,0.6614 -0.3672,1.49603 -0.50018,1.8547 -0.23624,0.6372 -0.24943,0.62902 -0.57461,-0.35629 z m 5.61071,-0.77089 c -1.22702,-1.21245 -1.36448,-1.83298 -0.81344,-3.67218 0.37433,-1.24939 0.79883,-1.23785 1.84041,0.05 0.69291,0.85677 0.72969,1.01097 0.46758,1.96027 -0.15648,0.56668 -0.23806,1.42814 -0.18129,1.91434 0.0568,0.48622 0.0378,0.87863 -0.0421,0.87201 -0.0799,-0.007 -0.65193,-0.51263 -1.27115,-1.12448 z m -34.3054,-0.40576 c -0.3561,-0.70274 -0.71144,-1.82177 -0.78965,-2.48674 -0.13824,-1.17544 -0.10015,-1.25471 1.3706,-2.85234 l 1.51279,-1.6433 0.0232,1.68261 c 0.0128,0.92546 0.17017,2.12712 0.34977,2.67034 0.307,0.92858 0.27394,1.07466 -0.55238,2.43991 -0.48342,0.79869 -0.96623,1.45555 -1.07292,1.45968 -0.10669,0.004 -0.48533,-0.56746 -0.84143,-1.27016 z m 8.96021,-0.69916 c -0.19249,-1.28358 -0.0113,-2.68232 0.48994,-3.78243 0.25846,-0.56727 3.32193,-2.8329 3.53814,-2.61668 0.0364,0.0364 -0.10797,0.64516 -0.32092,1.35273 -0.21294,0.70755 -0.38717,1.83309 -0.38718,2.50119 0,1.28503 0.12315,1.12736 -2.55513,3.27102 -0.58442,0.46775 -0.5861,0.46619 -0.76485,-0.72583 z m 31.43197,0.74326 c -0.35186,-0.14197 -0.45739,-2.63207 -0.1588,-3.74711 0.16007,-0.59777 0.19711,-0.58324 1.3193,0.51811 0.80545,0.7905 1.1546,1.352 1.1546,1.85682 0,1.08424 -1.22676,1.81134 -2.3151,1.37218 z m -9.40196,-2.96632 c -1.13924,-1.21793 -1.19784,-1.35369 -1.05648,-2.4474 0.0823,-0.63685 0.25717,-1.44825 0.38859,-1.80308 l 0.23893,-0.64516 1.05844,1.05844 c 1.03013,1.03013 1.05164,1.08868 0.8042,2.18996 -0.13983,0.62232 -0.20385,1.53768 -0.14228,2.03411 0.0616,0.49644 0.0676,0.9026 0.0133,0.9026 -0.0542,0 -0.64136,-0.58025 -1.30474,-1.28947 z m 6.49154,0.16798 c -0.8978,-0.91617 -1.12448,-1.33752 -1.12448,-2.09018 0,-1.02015 0.46647,-2.60916 0.76594,-2.60916 0.31784,0 2.16374,2.00922 1.99809,2.17487 -0.0864,0.0864 -0.23768,0.94798 -0.33611,1.91456 l -0.17896,1.75741 z m 5.63276,-0.0288 c -0.4269,-0.31215 -0.46913,-0.59375 -0.32329,-2.15556 0.0923,-0.98808 0.23427,-1.86303 0.31557,-1.94431 0.21737,-0.21738 2.16583,1.84925 2.35831,2.50134 0.3299,1.1176 -1.39971,2.29383 -2.35059,1.59853 z m -39.40569,-0.59298 c -0.32643,-0.85066 -0.1543,-3.61244 0.28252,-4.53297 0.39781,-0.83831 2.38133,-2.39829 3.68606,-2.89896 0.37927,-0.14555 0.37685,-0.0732 -0.0234,0.70082 -0.24549,0.47475 -0.51302,1.71249 -0.5945,2.75056 l -0.14816,1.8874 -1.52131,1.2549 c -1.21823,1.00491 -1.55316,1.17189 -1.68119,0.83825 z m 9.9782,-0.91046 c 0.18203,-1.53694 1.20701,-3.48969 2.15915,-4.11355 0.34702,-0.22739 1.23445,-0.64276 1.97207,-0.92303 1.32422,-0.50316 1.73282,-0.37245 0.9268,0.29649 -0.56505,0.46895 -1.19991,1.74043 -1.54926,3.1028 -0.26099,1.01777 -0.46222,1.22806 -1.98071,2.06967 l -1.69021,0.93679 z m 26.5449,-1.24137 c -1.23294,-1.19872 -1.27841,-1.295 -1.12834,-2.38988 0.086,-0.62745 0.31106,-1.43605 0.50012,-1.79689 l 0.34375,-0.65608 0.99041,1.01428 0.9904,1.01428 -0.297,1.38485 c -0.16335,0.76168 -0.22393,1.67601 -0.13463,2.03182 0.0893,0.35581 0.13034,0.64688 0.0912,0.6468 -0.0392,-8e-5 -0.64931,-0.56222 -1.3559,-1.24918 z m -6.05656,-0.55846 c -1.1056,-1.18197 -1.18984,-1.37038 -1.11479,-2.49311 0.0447,-0.66797 0.22186,-1.47736 0.39379,-1.79859 0.31002,-0.57928 0.32099,-0.57565 1.33313,0.4426 1.0044,1.01044 1.01618,1.04547 0.74589,2.21729 -0.15104,0.65484 -0.21354,1.57757 -0.13889,2.05052 0.0747,0.47294 0.1,0.85989 0.0563,0.85989 -0.0437,0 -0.61764,-0.57536 -1.27542,-1.2786 z m -15.80977,0.60865 c 0,-0.99068 1.95542,-3.59418 3.17203,-4.2233 0.68956,-0.35658 0.75729,-0.32269 2.12803,1.06529 0.7787,0.78851 1.33907,1.51037 1.24528,1.60414 -0.0938,0.0938 -1.21791,0.38568 -2.49804,0.64865 -1.28013,0.26295 -2.66268,0.60587 -3.07234,0.76206 -0.84528,0.32223 -0.97496,0.34128 -0.97496,0.14316 z m 9.02237,-1.0228 c -1.1209,-1.14212 -1.13859,-1.18811 -0.95912,-2.49306 0.10058,-0.73123 0.34876,-1.54707 0.55154,-1.81301 0.34637,-0.45421 0.42372,-0.41944 1.2784,0.57486 0.75611,0.87964 0.88001,1.19235 0.73378,1.85209 -0.0968,0.43656 -0.17278,1.29976 -0.16892,1.91823 0.004,0.61846 -0.0607,1.12448 -0.14335,1.12448 -0.0827,0 -0.66424,-0.52361 -1.29233,-1.16359 z m -18.90343,-1.15152 c 0.39461,-2.79979 1.6371,-4.47799 3.95842,-5.34649 1.98337,-0.74207 2.10099,-0.69252 1.15377,0.48618 -0.45378,0.56467 -1.03977,1.72553 -1.3022,2.57968 -0.44551,1.45008 -0.57768,1.61005 -1.99375,2.41292 -0.83414,0.47295 -1.61549,0.8599 -1.73635,0.8599 -0.12085,0 -0.1568,-0.44648 -0.0799,-0.99219 z m 28.43324,-1.15361 -1.15928,-1.07222 0.14478,-1.5966 c 0.19705,-2.17311 0.50066,-2.40628 1.64311,-1.26199 l 0.91572,0.91723 -0.19252,2.04291 -0.19253,2.04292 z m 5.27375,-0.61873 c -1.21293,-1.22819 -1.37327,-1.50238 -1.08305,-1.85208 0.53979,-0.65042 1.22065,-0.48842 2.7179,0.64664 0.76693,0.58142 1.87068,1.21965 2.45276,1.4183 l 1.05833,0.36116 -1.43708,0.43381 c -0.7904,0.23857 -1.6279,0.43378 -1.86112,0.43378 -0.23322,0 -1.06471,-0.64873 -1.84774,-1.44161 z m -11.50504,-0.12784 c -1.25115,-1.27027 -1.28083,-1.33726 -1.11813,-2.52423 0.0919,-0.67062 0.3003,-1.46818 0.46307,-1.77231 0.287,-0.53626 0.32701,-0.52192 1.32328,0.47434 0.99474,0.99475 1.01828,1.06008 0.74213,2.0602 -0.15685,0.56807 -0.24155,1.49051 -0.1882,2.04986 0.0533,0.55936 0.0894,1.01701 0.08,1.01701 -0.009,0 -0.5953,-0.58719 -1.30219,-1.30487 z M 344.688,573.0471 c -0.96512,-0.93575 -1.12565,-1.24648 -1.12448,-2.1766 0.002,-1.18702 0.45564,-2.75145 0.79876,-2.75145 0.11906,0 0.57149,0.44826 1.00541,0.99613 0.76503,0.96591 0.78375,1.0572 0.61755,3.00982 l -0.1714,2.01369 z m -10.52611,-0.3141 c 0.60309,-1.44338 1.61168,-2.68052 2.79359,-3.42665 l 1.02134,-0.64473 1.46373,1.51463 c 1.30786,1.35334 1.41686,1.54985 1.02367,1.84536 -0.24204,0.1819 -0.69592,0.33073 -1.00863,0.33073 -0.48379,0 -2.88351,0.57185 -5.10345,1.21616 l -0.61377,0.17814 z m 33.43413,-0.36917 c -0.8853,-0.27469 -2.86448,-1.37639 -2.86448,-1.59452 0,-0.0895 0.8519,-0.41354 1.8931,-0.72016 l 1.8931,-0.55751 1.60061,0.81338 c 0.88034,0.44736 1.96322,0.89083 2.40639,0.9855 l 0.80576,0.17211 -1.05833,0.52657 c -1.1298,0.56214 -3.46804,0.74946 -4.67615,0.37463 z m -13.68075,-1.9617 c -1.1398,-1.16327 -1.15694,-1.20743 -1.03579,-2.66833 0.17262,-2.08163 0.52578,-2.33696 1.65076,-1.19348 l 0.90237,0.91723 -0.17918,2.0637 -0.17918,2.0637 z m -6.05091,-0.49403 c -1.02239,-1.04347 -1.12363,-1.26686 -1.11511,-2.46058 0.005,-0.72207 0.15868,-1.5817 0.34115,-1.91029 l 0.33178,-0.59737 0.96042,0.99425 0.96042,0.99427 -0.17709,2.0637 -0.17709,2.0637 z m 11.32209,-0.8518 c -1.56891,-1.58298 -1.63226,-1.69445 -1.11908,-1.96909 0.89279,-0.47781 1.53015,-0.33864 2.62028,0.57214 0.92014,0.76875 2.00548,1.34191 3.64702,1.92601 0.42782,0.15221 0.30114,0.24918 -0.66146,0.50628 -2.84808,0.7607 -2.66476,0.80301 -4.48676,-1.03534 z m -18.23371,0.25923 c -0.61437,-0.66651 -1.09138,-1.44769 -1.09055,-1.78593 0.002,-0.8817 0.50357,-2.53945 0.82891,-2.74053 0.15489,-0.0957 0.67783,0.28443 1.16209,0.84479 0.73285,0.84801 0.85034,1.15287 0.70077,1.81814 -0.0988,0.43963 -0.17656,1.30532 -0.1727,1.92378 0.004,0.61846 -0.0703,1.12448 -0.16474,1.12448 -0.0945,0 -0.66316,-0.53311 -1.26378,-1.18473 z m 31.8486,0.67938 c -0.43657,-0.11512 -1.26786,-0.41117 -1.84732,-0.65789 l -1.05356,-0.44855 1.64624,-0.92773 c 1.63246,-0.91996 1.65952,-0.92512 3.23377,-0.6154 0.87315,0.17177 2.19517,0.25395 2.93783,0.18259 l 1.35028,-0.12975 -0.75237,0.63455 c -2.22422,1.87595 -3.76417,2.42387 -5.51487,1.96218 z m -8.74364,-1.95596 c -0.44337,-0.17426 -1.25499,-0.59934 -1.80359,-0.94462 l -0.99747,-0.6278 2.06818,-0.7103 c 1.90072,-0.65278 2.12174,-0.678 2.72964,-0.31144 1.25158,0.75469 2.63306,1.35697 3.63061,1.58279 l 0.9996,0.22627 -1.19063,0.53332 c -1.37558,0.61616 -4.17884,0.74599 -5.43634,0.25178 z m -13.54751,-1.04143 c -0.79074,-0.80693 -1.12448,-1.37099 -1.12448,-1.90053 0,-0.87987 0.53612,-2.79881 0.78194,-2.79881 0.30677,0 2.14259,2.01435 1.98209,2.17487 -0.0864,0.0864 -0.23769,0.94798 -0.33611,1.91455 l -0.17896,1.75742 z m -6.26609,-0.71255 c -1.25114,-1.27026 -1.28082,-1.33726 -1.11813,-2.52423 0.0919,-0.67061 0.3003,-1.46817 0.46307,-1.77231 0.28701,-0.53626 0.32701,-0.52192 1.32328,0.47434 0.99823,0.99825 1.01914,1.05696 0.73847,2.07346 -0.15887,0.57539 -0.22827,1.49784 -0.15423,2.04989 0.074,0.55205 0.11172,1.00372 0.0837,1.00372 -0.028,0 -0.62929,-0.58719 -1.33618,-1.30487 z m -6.15629,0.17991 c -0.96111,-1.05521 -1.17387,-1.68124 -0.82879,-2.43861 0.49951,-1.0963 2.65267,-1.29678 2.20166,-0.205 -0.36819,0.89136 -0.67941,2.5377 -0.54561,2.88639 0.20914,0.54499 -0.22607,0.41728 -0.82726,-0.24278 z m 37.03319,-0.41373 c -0.2271,-0.14425 0.13454,-0.65556 1.19063,-1.68344 1.31878,-1.28352 1.68949,-1.4977 2.83971,-1.6406 0.7276,-0.0904 2.004,-0.49961 2.83644,-0.90937 l 1.51353,-0.74499 -0.98436,1.82388 c -0.89095,1.65079 -1.13465,1.89725 -2.56792,2.59686 -1.58919,0.77571 -4.03925,1.0587 -4.82803,0.55766 z m -21.42179,-1.70294 c -1.32815,-1.35956 -1.348,-1.40311 -0.93424,-2.05052 0.78899,-1.23452 1.95501,-2.3201 2.99645,-2.78971 0.57091,-0.25744 1.10468,-0.40143 1.18614,-0.31996 0.0815,0.0815 -0.0983,0.94607 -0.39957,1.92135 -0.30123,0.97528 -0.54836,1.96906 -0.54917,2.20837 -0.002,0.69768 -0.5344,2.41954 -0.7476,2.41954 -0.10728,0 -0.80568,-0.62508 -1.55201,-1.38907 z m 14.80265,0.82762 c -0.76399,-0.29363 -1.38806,-0.61484 -1.38683,-0.71382 0.001,-0.099 0.75528,-0.57989 1.67568,-1.06868 1.63321,-0.86738 1.70801,-0.88101 3.11025,-0.56721 0.79024,0.17685 2.11291,0.27914 2.93928,0.22728 l 1.50249,-0.0942 -0.57401,0.61018 c -0.31571,0.3356 -1.10317,0.96068 -1.74992,1.38907 -1.44346,0.9561 -3.3949,1.03301 -5.51694,0.21743 z m -21.49645,-1.68656 c -1.00727,-1.02632 -1.15913,-1.32601 -1.10612,-2.18281 0.0338,-0.54623 0.19024,-1.39155 0.34765,-1.87849 l 0.2862,-0.88535 1.03653,1.01214 c 0.99266,0.9693 1.02842,1.06275 0.845,2.20826 -0.10534,0.65786 -0.17501,1.58309 -0.15483,2.05603 0.0202,0.47294 0.009,0.85989 -0.0251,0.85989 -0.034,0 -0.58719,-0.53535 -1.22935,-1.18967 z m -5.92329,-0.39859 c -1.08334,-1.19899 -1.19333,-1.87926 -0.42766,-2.64494 0.54239,-0.54239 1.7057,-0.71548 1.967,-0.29268 0.0804,0.13004 -0.0433,0.68993 -0.27489,1.24418 -0.24692,0.59094 -0.3625,1.36853 -0.27946,1.88018 0.0779,0.47987 0.10339,0.87249 0.0567,0.87249 -0.0467,0 -0.51544,-0.47659 -1.0417,-1.0591 z m 31.39727,-1.49255 c -0.52669,-0.11578 -0.40838,-0.29591 1.15947,-1.76532 1.49433,-1.40052 1.93659,-1.6654 3.06813,-1.83759 0.72717,-0.11065 1.84252,-0.43137 2.47856,-0.71271 1.00367,-0.44397 1.15643,-0.61896 1.15643,-1.32463 v -0.81309 l -1.25677,0.62807 c -2.0227,1.01084 -3.33093,1.16395 -2.45423,0.28725 0.14176,-0.14173 0.40969,-0.69662 0.5954,-1.23303 0.22786,-0.65816 0.85384,-1.38949 1.92507,-2.24907 1.25589,-1.00777 1.67634,-1.54048 2.01327,-2.55093 l 0.42586,-1.27714 0.53077,0.75449 c 1.17917,1.67618 1.39006,2.33955 1.09074,3.43101 -0.155,0.5652 -0.67064,1.56342 -1.14587,2.21826 -0.47522,0.65485 -1.12741,1.7121 -1.44931,2.34942 l -0.58527,1.15877 0.75048,-0.53599 c 1.04512,-0.74642 1.95077,-1.62253 2.79891,-2.70761 l 0.72383,-0.92604 0.002,1.5875 c 0.003,2.73065 -1.61317,4.47944 -4.87093,5.26957 -0.64212,0.15571 -0.72188,0.12509 -0.46868,-0.18 0.16782,-0.20222 0.49868,-0.83089 0.73524,-1.39705 l 0.43011,-1.02941 -0.7618,0.81552 c -1.15935,1.24108 -2.87729,2.00427 -4.70953,2.09217 -0.8774,0.0421 -1.85923,0.0185 -2.18183,-0.0524 z m -28.58376,-1.21404 c -1.37242,-1.4202 -0.9904,-3.11359 0.7024,-3.11359 0.92585,0 1.1684,0.2404 0.75051,0.74391 -0.18064,0.21764 -0.38797,1.04005 -0.46073,1.8276 l -0.13229,1.43193 z m 6.04085,-0.57819 c -1.58243,-1.60234 -1.60268,-1.92159 -0.22172,-3.49441 0.77263,-0.87997 2.04191,-1.67603 3.28404,-2.05965 l 0.57036,-0.17615 -0.60725,1.92812 c -0.33399,1.06048 -0.6903,2.54725 -0.7918,3.30391 -0.27862,2.07708 -0.60292,2.14942 -2.23363,0.49818 z m 2.98826,-0.55676 c 0.65032,-2.73868 2.64358,-4.58436 5.21808,-4.83175 l 1.34584,-0.12932 -0.84495,1.62351 c -0.46472,0.89294 -0.94747,1.62351 -1.07278,1.62351 -0.6346,0 -3.26958,1.18628 -3.99984,1.80075 l -0.83347,0.70133 z m -4.01524,-4.35989 c 0.074,-0.21828 0.3376,-1.01452 0.58576,-1.7694 0.29809,-0.9068 0.79957,-1.68727 1.47798,-2.30015 0.99963,-0.90313 3.13993,-1.75128 4.41927,-1.75128 h 0.61906 l -0.86552,1.69339 c -0.79397,1.55339 -0.96179,1.7186 -2.02997,1.99823 -1.51015,0.39537 -2.61857,0.96272 -3.57273,1.8287 -0.42468,0.38542 -0.70822,0.51985 -0.63385,0.30051 z m 6.53767,-1.52135 c 1.7012,-3.03861 2.66358,-3.71684 5.31564,-3.74613 2.0909,-0.023 2.34217,0.22963 1.31909,1.3267 -0.46064,0.49392 -1.0191,1.16596 -1.24103,1.49339 -0.34217,0.50482 -0.64146,0.59531 -1.96907,0.59531 -0.86106,0 -1.993,0.17859 -2.51542,0.39687 -1.19313,0.49853 -1.22408,0.49628 -0.90921,-0.0661 z m 23.30731,-1.68196 c 0,-0.16108 -0.17859,-0.22436 -0.39687,-0.1406 -0.28328,0.10872 -0.39688,-0.0254 -0.39688,-0.46844 0,-0.34142 -0.18619,-0.77528 -0.41375,-0.96417 -0.25315,-0.21008 -0.39726,-0.71051 -0.37124,-1.28916 0.0234,-0.52017 0.0272,-1.42203 0.008,-2.00411 -0.0309,-0.96216 -0.0674,-1.01428 -0.40151,-0.57346 -0.35239,0.46498 -0.38004,0.46136 -0.67448,-0.0888 -0.43199,-0.80719 -0.48931,-0.60071 -0.27749,0.99952 0.1016,0.76758 0.1164,1.36289 0.0329,1.32292 -1.37419,-0.6576 -2.42206,-1.55102 -2.91994,-2.48955 -0.32904,-0.62023 -1.15051,-1.68923 -1.82549,-2.37551 l -1.22724,-1.2478 1.25677,0.17076 c 1.44925,0.19693 1.564,0.0888 0.49327,-0.46492 -0.42305,-0.21876 -1.11717,-1.02148 -1.55666,-1.80023 -0.43624,-0.77298 -1.29388,-1.85777 -1.90586,-2.41067 -0.61199,-0.5529 -1.0517,-1.06627 -0.97713,-1.14083 0.0746,-0.0746 0.94835,-0.0114 1.94175,0.14034 1.57137,0.24003 1.91228,0.39706 2.62221,1.20779 0.86488,0.98769 1.43294,2.48243 1.43294,3.77047 0,0.56722 0.22655,0.94692 0.83202,1.39457 l 0.83203,0.61516 -0.18949,-1.67487 c -0.10422,-0.9212 -0.345,-2.12624 -0.53506,-2.6779 l -0.34556,-1.00301 0.79258,0.45887 c 0.43593,0.25236 1.28456,0.89188 1.88585,1.42115 1.07291,0.94443 1.09326,0.99473 1.09326,2.70235 0,1.29011 0.11721,1.85727 0.4533,2.1935 0.50285,0.50308 0.52459,0.47493 0.93755,-1.21388 l 0.223,-0.91199 0.99495,1.57345 c 1.1655,1.84311 1.15837,2.33167 -0.0725,4.96438 -0.44906,0.96049 -0.81648,1.87039 -0.81648,2.02197 0,0.15158 -0.11906,0.27562 -0.26458,0.27562 -0.14553,0 -0.26459,-0.13179 -0.26459,-0.2929 z m -15.875,-3.14669 c -0.3638,-0.11652 -1.36942,-0.2237 -2.23471,-0.2382 l -1.57326,-0.0265 0.9118,-0.9435 c 2.08973,-2.16236 3.27837,-2.35358 5.90421,-0.94978 1.10917,0.59299 1.22413,0.72647 0.82705,0.96028 -0.25365,0.14936 -0.86841,0.53943 -1.36614,0.86685 -0.94786,0.62355 -1.37569,0.68086 -2.46895,0.33073 z m -10.823,-0.99218 c 1.51811,-2.52201 2.0601,-2.98302 3.92497,-3.33849 0.96478,-0.18391 3.45887,0.054 3.45783,0.32985 -2.7e-4,0.0904 -0.36636,0.58108 -0.81337,1.09041 -0.44701,0.50932 -0.99621,1.19393 -1.22044,1.52135 -0.33516,0.4894 -0.65365,0.59531 -1.79041,0.59531 -0.7605,0 -1.9672,0.1773 -2.68155,0.39402 -0.71435,0.21669 -1.3383,0.39529 -1.38655,0.39688 -0.0482,0.003 0.18104,-0.44363 0.50952,-0.98933 z m 15.82822,-1.44032 c -0.35178,-0.28445 -1.33785,-0.84616 -2.19128,-1.24825 l -1.55169,-0.73107 1.48243,-0.60169 c 1.63984,-0.66556 2.39411,-0.60118 3.72148,0.31766 0.94043,0.65098 2.23969,2.06256 2.2522,2.44689 0.005,0.14553 -0.68488,0.28012 -1.53247,0.29912 -1.17094,0.0262 -1.6947,-0.0897 -2.18067,-0.48266 z m -8.4448,-3.03091 c -0.65485,-0.20962 -1.82679,-0.34604 -2.60432,-0.30313 l -1.4137,0.078 1.61917,-1.52135 c 1.71615,-1.61248 2.19342,-1.76298 3.98635,-1.25714 0.50932,0.14369 1.3857,0.54094 1.9475,0.88278 l 1.02146,0.62153 -1.55063,0.90149 c -1.91119,1.11112 -1.59734,1.0487 -3.00583,0.59782 z m 5.54768,-2.88128 c -0.17318,-0.20868 -1.15065,-0.79753 -2.17217,-1.30858 l -1.85731,-0.92916 1.2845,-0.56819 c 0.70648,-0.3125 1.605,-0.5591 1.99672,-0.54796 1.25548,0.0357 2.71849,1.03106 3.99961,2.72111 l 0.7159,0.94443 -1.8262,0.0339 c -1.29635,0.0241 -1.91754,-0.0762 -2.14105,-0.34552 z"
           id="path891-2"
           sodipodi:nodetypes="scssssssssssssssssscssssssssscsssssscsscscsccssssssssscsssssssccccssscssssssssscsscsssssssscssssssssssssssssssssssscssscsssssscsssssssscscsssssssssssscsssssssscssssscssssssssssssssssssssscssssssssssscsssssssssscssssssssscsssssccsssssssssssssssssssssssssscssssssssssccssccccsssccssscccssssssscscscssscsssscssssssscssssssccsscssccccsssssssscscscssssccsscssssccsscsssccscsssssssssssssssssssssssssssscssscssccssssssscssssssssssssssssssscssssscsssscssccssscsssssssscsssscssssscssscsssssssssssssssssscsssscssscsscssssssssscsscssssscsssscccccssssccssssssscssscsscsssscssscsssscssscsssssss"
           transform="matrix(0.34977963,0,0,0.34977963,170.33,327.64855)" />
        <path
           d="m 286.67539,515.39193 q 0.74414,0 0.74414,0.78135 v 2.1208 h 2.30684 q 0.48369,0 0.5581,0.66972 v 0.0744 q 0,0.70693 -0.93017,0.70693 h -1.93477 v 2.0836 q 0,0.78134 -0.78135,0.78134 -0.66972,0 -0.66972,-0.74414 v -2.1208 h -1.89756 q -0.96738,0 -0.96738,-0.66972 v -0.14883 q 0.0651,-0.63252 0.59531,-0.63252 h 2.26963 v -2.23242 q 0,-0.59532 0.70693,-0.66973 z"
           style="fill:#ffffff;font-style:normal;font-variant:normal;font-weight:normal;font-stretch:normal;font-family:Aadhunik;-inkscape-font-specification:Aadhunik"
           id="path925" />
      </g>
    </g>
  </g>
</svg>
