<?xml version="1.0" encoding="UTF-8" standalone="no"?>
<svg
   xmlns:dc="http://purl.org/dc/elements/1.1/"
   xmlns:cc="http://creativecommons.org/ns#"
   xmlns:rdf="http://www.w3.org/1999/02/22-rdf-syntax-ns#"
   xmlns:svg="http://www.w3.org/2000/svg"
   xmlns="http://www.w3.org/2000/svg"
   xmlns:sodipodi="http://sodipodi.sourceforge.net/DTD/sodipodi-0.dtd"
   xmlns:inkscape="http://www.inkscape.org/namespaces/inkscape"
   width="420mm"
   height="420mm"
   viewBox="0 0 420 420"
   version="1.1"
   id="svg8"
   inkscape:version="1.0.2 (e86c870879, 2021-01-15, custom)"
   sodipodi:docname="give_to_a_group.svg">
  <defs
     id="defs2">
    <inkscape:path-effect
       effect="powerstroke"
       id="path-effect1631"
       is_visible="true"
       lpeversion="1"
       offset_points="1.7960668,0.31738255"
       sort_points="true"
       interpolator_type="CentripetalCatmullRom"
       interpolator_beta="0.75"
       start_linecap_type="zerowidth"
       linejoin_type="spiro"
       miter_limit="4"
       scale_width="1"
       end_linecap_type="zerowidth" />
    <inkscape:path-effect
       effect="simplify"
       id="path-effect1629"
       is_visible="true"
       lpeversion="1"
       steps="1"
       threshold="0.011076923"
       smooth_angles="0"
       helper_size="0"
       simplify_individual_paths="false"
       simplify_just_coalesce="false"
       step="1" />
    <inkscape:path-effect
       effect="powerstroke"
       id="path-effect1624"
       is_visible="true"
       lpeversion="1"
       offset_points="3.4101546,0.31738255"
       sort_points="true"
       interpolator_type="CentripetalCatmullRom"
       interpolator_beta="0.75"
       start_linecap_type="zerowidth"
       linejoin_type="spiro"
       miter_limit="4"
       scale_width="1"
       end_linecap_type="zerowidth" />
    <inkscape:path-effect
       effect="simplify"
       id="path-effect1622"
       is_visible="true"
       lpeversion="1"
       steps="1"
       threshold="0.011076923"
       smooth_angles="0"
       helper_size="0"
       simplify_individual_paths="false"
       simplify_just_coalesce="false"
       step="1" />
    <inkscape:path-effect
       effect="powerstroke"
       id="path-effect1617"
       is_visible="true"
       lpeversion="1"
       offset_points="3.2756612,0.31738255"
       sort_points="true"
       interpolator_type="CentripetalCatmullRom"
       interpolator_beta="0.75"
       start_linecap_type="zerowidth"
       linejoin_type="spiro"
       miter_limit="4"
       scale_width="1"
       end_linecap_type="zerowidth" />
    <inkscape:path-effect
       effect="simplify"
       id="path-effect1615"
       is_visible="true"
       lpeversion="1"
       steps="1"
       threshold="0.011076923"
       smooth_angles="0"
       helper_size="0"
       simplify_individual_paths="false"
       simplify_just_coalesce="false"
       step="1" />
    <rect
       x="283.10416"
       y="503.46429"
       width="32.316963"
       height="36.285713"
       id="rect917" />
  </defs>
  <sodipodi:namedview
     id="base"
     pagecolor="#ffffff"
     bordercolor="#666666"
     borderopacity="1.0"
     inkscape:pageopacity="0.0"
     inkscape:pageshadow="2"
     inkscape:zoom="0.087500001"
     inkscape:cx="2183.7698"
     inkscape:cy="808.64392"
     inkscape:document-units="mm"
     inkscape:current-layer="layer1"
     inkscape:document-rotation="0"
     showgrid="false"
     inkscape:snap-bbox="false"
     inkscape:bbox-paths="true"
     inkscape:bbox-nodes="true"
     inkscape:snap-bbox-edge-midpoints="true"
     inkscape:snap-bbox-midpoints="true"
     inkscape:snap-intersection-paths="true"
     inkscape:object-nodes="true"
     inkscape:snap-smooth-nodes="true"
     inkscape:snap-midpoints="true"
     inkscape:snap-object-midpoints="true"
     inkscape:snap-center="true"
     inkscape:snap-global="false"
     inkscape:window-width="1920"
     inkscape:window-height="1137"
     inkscape:window-x="-8"
     inkscape:window-y="-8"
     inkscape:window-maximized="1"
     showguides="true"
     inkscape:guide-bbox="true"
     inkscape:snap-nodes="true"
     inkscape:object-paths="true">
    <sodipodi:guide
       position="108.51143,306.81135"
       orientation="0.19183694,0.98142681"
       id="guide1572" />
  </sodipodi:namedview>
  <metadata
     id="metadata5">
    <rdf:RDF>
      <cc:Work
         rdf:about="">
        <dc:format>image/svg+xml</dc:format>
        <dc:type
           rdf:resource="http://purl.org/dc/dcmitype/StillImage" />
        <dc:title></dc:title>
      </cc:Work>
    </rdf:RDF>
  </metadata>
  <g
     inkscape:label="Слой 1"
     inkscape:groupmode="layer"
     id="layer1">
    <path
       style="fill:#ffffff;stroke-width:0.579563"
       d="m 155.08667,410.84985 c -29.39655,-1.60877 -34.98643,-2.10184 -52.4505,-4.62652 -29.631145,-4.2836 -37.381845,-7.19171 -37.381845,-14.02594 0,-3.32548 2.39092,-15.0572 4.33771,-21.28421 3.57575,-11.43739 9.61871,-22.01224 15.61687,-27.32867 3.35296,-2.97187 12.82879,-7.7624 30.467445,-15.40289 7.62983,-3.30499 23.96495,-11.54275 25.99722,-13.11032 l 1.36576,-1.05348 -2.70365,-3.94909 c -3.37333,-4.92726 -5.00742,-8.17281 -6.69115,-13.28971 -0.88153,-2.67896 -2.26627,-5.17602 -4.17815,-7.53432 -3.31139,-4.0846 -6.9715,-11.28864 -8.25838,-16.25463 -0.49233,-1.89983 -0.89514,-5.75507 -0.89514,-8.56717 0,-5.7907 1.0176,-9.13264 2.78083,-9.13264 0.98112,0 1.14212,-0.61658 1.47548,-5.65074 0.20581,-3.10791 0.37555,-8.59851 0.3772,-12.20132 0.004,-8.29212 1.11878,-13.3914 4.44271,-20.31832 3.50177,-7.29754 8.42899,-12.32086 15.33951,-15.6387 7.37079,-3.53883 10.56416,-4.22764 21.08001,-4.54702 7.94985,-0.24144 10.05082,-0.10982 14.72406,0.92237 12.44025,2.74772 20.86108,9.06625 25.79823,19.35756 3.32477,6.93036 4.39388,11.93536 4.39388,20.56975 0,3.79291 0.16945,9.2835 0.37657,12.20132 0.33325,4.69487 0.50331,5.3051 1.47848,5.3051 1.76391,0 2.78146,3.34101 2.78146,9.13264 0,2.8121 -0.40281,6.66734 -0.89514,8.56717 -1.28688,4.96599 -4.94699,12.17003 -8.25838,16.25463 -1.91188,2.3583 -3.29662,4.85536 -4.17815,7.53432 -1.68373,5.1169 -3.31782,8.36245 -6.69115,13.28971 l -2.70365,3.94909 1.36576,1.05348 c 2.12517,1.63923 18.50958,9.88827 26.86656,13.52648 18.02557,7.8474 26.23054,12.00191 29.59811,14.98673 8.46665,7.50435 16.00042,23.78361 18.81014,40.64567 1.77175,10.63286 1.29866,12.38233 -4.07164,15.05684 -7.72743,3.84842 -40.46509,8.9809 -68.38849,10.72167 -10.14217,0.63228 -36.0154,1.15383 -41.72858,0.84116 z M 48.379585,362.18037 c -18.08638,-2.08123 -36.6046,-5.60495 -41.4668602,-7.89048 -5.17628,-2.43314 -5.87654,-5.56775 -3.68472,-16.49409 2.53323,-12.62826 7.9869102,-24.65076 14.2515502,-31.41714 4.26867,-4.61055 7.34378,-6.36386 24.43437,-13.93152 10.85531,-4.8067 19.73752,-9.10935 26.08005,-12.63351 l 3.609,-2.0053 -2.2411,-3.00025 c -2.71384,-3.63314 -4.77573,-7.66489 -6.42753,-12.56819 -0.67998,-2.01849 -2.06618,-4.63951 -3.08044,-5.82448 -2.86711,-3.34968 -6.10389,-9.15637 -7.41147,-13.29598 -2.44012,-7.72504 -1.99657,-16.73811 0.88841,-18.05259 1.33111,-0.6065 1.35151,-0.75965 1.6365,-12.28996 0.24567,-9.93981 0.48018,-12.279 1.57724,-15.73275 3.90757,-12.30178 11.90598,-19.95856 24.35796,-23.31761 5.31081,-1.43264 20.189985,-1.43264 25.500785,0 6.32137,1.70526 12.07902,4.8741 15.95705,8.78228 3.41052,3.43704 6.87066,9.15518 8.36168,13.8183 l 0.6973,2.18078 -3.66967,3.98158 c -6.017,6.52843 -9.64903,13.5589 -11.19615,21.67225 -0.43827,2.29837 -1.06315,8.94007 -1.38863,14.75934 -0.56505,10.10272 -0.67509,10.75507 -2.43704,14.44689 -2.39056,5.00896 -2.89168,11.53126 -1.43741,18.70837 1.38247,6.82278 2.38855,9.16818 8.64279,20.14831 5.68298,9.9772 9.07306,16.84958 9.07306,18.39289 0,1.11431 -3.72818,2.98251 -19.12559,9.58386 -15.001235,6.43151 -17.986535,7.90665 -24.310815,12.01284 -9.15181,5.94204 -15.31192,13.10738 -20.58797,23.9476 -1.44398,2.96682 -2.62542,5.73916 -2.62542,6.16075 0,0.97418 -4.68993,0.92647 -13.97693,-0.14219 z m 224.938045,0.14219 c 0,-0.42159 -1.18144,-3.19393 -2.62542,-6.16075 -5.27605,-10.84022 -11.43616,-18.00556 -20.58797,-23.9476 -6.26246,-4.06605 -9.13733,-5.4858 -24.31082,-12.00585 -15.48098,-6.65217 -19.12559,-8.47983 -19.12559,-9.59085 0,-1.54331 3.39008,-8.41569 9.07306,-18.39289 6.25424,-10.98013 7.26032,-13.32553 8.64279,-20.14831 1.46302,-7.22033 0.94684,-13.95636 -1.44122,-18.80719 -1.75546,-3.56584 -1.85997,-4.17862 -2.39418,-14.0388 -1.04272,-19.24583 -3.7432,-27.1054 -12.62383,-36.74086 l -3.66967,-3.98158 0.6973,-2.18078 c 1.49102,-4.66312 4.95116,-10.38126 8.36168,-13.8183 3.87803,-3.90818 9.63568,-7.07702 15.95705,-8.78228 5.3108,-1.43264 20.18998,-1.43264 25.50079,0 12.45198,3.35905 20.45039,11.01583 24.35796,23.31761 1.09706,3.45375 1.33157,5.79294 1.57724,15.73275 0.28499,11.53031 0.30539,11.68346 1.6365,12.28996 2.88498,1.31448 3.32853,10.32755 0.88841,18.05259 -1.30758,4.13961 -4.54436,9.9463 -7.41147,13.29598 -1.01426,1.18497 -2.40046,3.80599 -3.08044,5.82448 -1.6518,4.9033 -3.71369,8.93505 -6.42753,12.56819 l -2.2411,3.00025 3.609,2.0053 c 6.30325,3.50233 15.19899,7.81526 25.9423,12.57761 19.30161,8.55613 22.2871,10.43309 27.2441,17.12821 8.5259,11.51543 15.55141,37.07058 11.57947,42.12008 -2.47995,3.15275 -9.3456,5.1739 -27.09023,7.97499 -20.13198,3.17795 -32.03818,4.18432 -32.03818,2.70804 z"
       id="path1537-7"
       sodipodi:nodetypes="ssssssscssssssscssssssssssssscssssssssssssscssssssssssscsssssssssssssssssssssscssssssssssscssssss" />
    <g
       aria-label="+"
       transform="matrix(16.436981,0,0,16.436981,-2914.7292,-5640.7671)"
       id="text915"
       style="font-size:19.05px;line-height:1.25;font-family:'Adobe Ming Std';-inkscape-font-specification:'Adobe Ming Std';letter-spacing:0px;word-spacing:0px;white-space:pre;shape-inside:url(#rect917)">
      <g
         id="g933"
         transform="translate(-150.69852,-171.26531)">
        <path
           id="path858-0-2"
           style="font-size:19.05px;line-height:1.25;font-family:'Adobe Ming Std';-inkscape-font-specification:'Adobe Ming Std';letter-spacing:0px;word-spacing:0px;white-space:pre;shape-inside:url(#rect917);fill:#ffffff;fill-opacity:1;stroke-width:0.0761593"
           d="m 348.28168,514.75586 c -0.20837,10e-4 -0.42633,0.0184 -0.65667,0.0512 -0.38599,0.055 -1.19604,0.27609 -1.49694,0.40855 -0.12038,0.053 -0.50684,0.21856 -0.85879,0.36794 -0.84036,0.35664 -1.27328,0.56288 -1.76339,0.84011 -1.51081,0.85456 -2.16149,1.745 -2.05464,2.8117 h -6e-5 c 0.10121,1.01034 1.02219,1.91183 2.11211,2.06743 0.11512,0.0164 0.23124,0.0243 0.35073,0.0239 -0.1038,-0.13155 -0.19673,-0.29936 -0.27537,-0.478 -0.41681,-0.0653 -0.943,-0.3004 -1.23732,-0.57223 -0.11271,-0.10411 -0.20638,-0.4737 -0.34856,-0.4231 v 3e-5 c -0.39525,0.14071 -0.30544,-0.69601 -0.24724,-1.14882 0.0486,-0.3785 0.2227,-0.717 0.53943,-1.04897 0.62716,-0.65733 1.46993,-1.14515 3.40319,-1.96985 0.97027,-0.4139 1.55032,-0.59839 2.1195,-0.67399 1.20865,-0.16061 2.11787,0.13128 2.76334,0.88715 0.25094,0.29385 0.51879,0.94323 0.56559,1.37147 0.0715,0.65368 -0.10387,1.30264 -0.4492,1.66209 -0.22929,0.23866 -0.27877,0.25998 -0.32197,0.13859 -0.0182,-0.0514 -0.0119,-0.10123 0.014,-0.11023 0.026,-0.009 0.10149,-0.0765 0.16779,-0.14937 0.35582,-0.39127 0.50713,-0.96166 0.41453,-1.56239 -0.0574,-0.37218 -0.11921,-0.54408 -0.30553,-0.84914 -0.24009,-0.39312 -0.62503,-0.73592 -1.04579,-0.93126 -1.05354,-0.48914 -2.1708,-0.35808 -4.14276,0.48589 -2.1379,0.91498 -3.07199,1.55325 -3.44542,2.35426 -0.457,0.98026 0.30521,2.1712 1.48487,2.36422 -0.0754,-0.2 -0.13237,-0.4028 -0.16618,-0.5755 -0.0336,-0.0157 -0.0644,-0.0302 -0.0918,-0.0432 -0.29847,-0.14174 -0.46874,-0.30825 -0.61428,-0.60065 -0.1412,-0.28372 -0.15781,-0.42693 -0.0802,-0.69188 0.20334,-0.69431 1.12713,-1.31714 3.33032,-2.24532 1.51031,-0.63627 2.43887,-0.7333 3.2635,-0.34111 0.40861,0.19435 0.63413,0.39746 0.83412,0.7513 0.34132,0.6039 0.23564,1.43327 -0.22306,1.7505 -0.10284,0.0711 -0.30917,0.13625 -0.87816,0.27729 -0.40905,0.10135 -0.74512,0.18746 -0.74712,0.19046 -0.0172,0.031 0.27533,1.04206 0.30483,1.05346 0.0457,0.0177 1.41371,-0.33243 1.69526,-0.43389 0.63483,-0.22875 1.08116,-0.89709 1.16636,-1.74651 0.049,-0.48812 0.005,-0.83032 -0.16961,-1.32412 -0.17873,-0.50504 -0.33871,-0.75167 -0.743,-1.14555 -0.24864,-0.24225 -0.37143,-0.32582 -0.71059,-0.48362 -0.45341,-0.21097 -0.92328,-0.31203 -1.45579,-0.30886 z m -0.7635,4.27679 -0.16612,0.0592 -0.16616,0.0592 0.17908,0.68336 3e-5,-1e-4 c 0.0286,0.49697 0.19286,0.73058 0.20986,0.78818 0.0291,0.099 0.0744,0.0892 0.19127,0.0476 l 0.1605,-0.0571 -0.17534,-0.64265 c -0.0197,0.35112 -0.19192,-0.72716 -0.20422,-0.79016 z m 0.50476,0.007 c -0.0346,-0.002 -0.0934,0.0153 -0.19955,0.053 -0.21894,0.0779 -0.22336,0.0822 -0.19036,0.18354 0.0186,0.057 0.0631,0.33805 0.15867,0.60646 v 6e-5 c 0.0729,0.20458 0.13207,0.53057 0.14107,0.56477 0.0125,0.0481 0.066,0.0498 0.23759,0.008 0.12173,-0.0298 0.22503,-0.0611 0.22903,-0.0701 0.008,-0.0165 -0.28733,-1.18911 -0.32873,-1.30702 -0.009,-0.0241 -0.0208,-0.0372 -0.0477,-0.0387 z m 1.80102,0.0713 c 0.0838,-4.7e-4 0.16954,0.0476 0.20404,0.14453 0.0313,0.0881 -0.0491,0.2483 -0.14085,0.281 -0.0263,0.009 -0.0934,-0.005 -0.14905,-0.0311 l 3e-5,-6.3e-4 c -0.1219,-0.0579 -0.1445,-0.11021 -0.1067,-0.2473 0.0268,-0.0971 0.10872,-0.14603 0.19253,-0.14651 z m -3.23964,0.17034 -0.16019,0.057 -0.16015,0.057 0.1848,0.70238 -3e-5,-3e-5 c -0.13397,-0.37632 0.19611,0.74203 0.21001,0.79053 0.0231,0.0809 0.0685,0.0692 0.17987,0.0202 l 0.15468,-0.068 -0.14937,-0.55717 c -0.0131,0.29916 -0.18011,-0.68103 -0.20451,-0.77953 z m 0.50302,0.008 c -0.0358,10e-6 -0.0907,0.0122 -0.1754,0.0367 -0.12103,0.035 -0.21479,0.0805 -0.21473,0.10416 5e-5,0.0231 0.0377,0.31128 0.14789,0.62079 v -3.1e-4 c 0.0859,0.24136 0.15543,0.60686 0.16443,0.64126 0.0131,0.0494 0.0641,0.0504 0.23803,0.005 0.12184,-0.0317 0.22484,-0.0637 0.22884,-0.0707 0.008,-0.0133 -0.28942,-1.19097 -0.32772,-1.30029 -0.009,-0.0245 -0.0255,-0.0367 -0.0613,-0.0367 z m 2.3043,0.23368 c 0.0528,6.7e-4 0.0658,0.0213 0.0804,0.0625 0.0364,0.10219 0.0385,0.10124 -0.45344,0.21111 v -3e-5 c -0.34706,0.0777 -0.36998,0.0774 -0.39928,-0.005 -0.0364,-0.10218 -0.0385,-0.10121 0.45348,-0.21108 0.17352,-0.0388 0.26602,-0.0582 0.31879,-0.0575 z m -3.19921,0.0233 c -0.0399,-0.003 -0.12526,0.0379 -0.34354,0.14371 -0.19666,0.0953 -0.36599,0.19111 -0.37629,0.21281 -0.0103,0.0217 0.0364,0.25043 0.104,0.50827 l 6e-5,-6e-5 c 0.0676,0.25781 0.13531,0.47579 0.15081,0.48379 0.0154,0.008 0.13929,0.008 0.27529,1.2e-4 0.13599,-0.008 0.30147,-0.0171 0.36777,-0.0191 0.21695,-0.008 0.21648,-0.002 0.0491,-0.62077 -0.0871,-0.32203 -0.17074,-0.61991 -0.18574,-0.66201 -0.01,-0.028 -0.0176,-0.0452 -0.0415,-0.0468 z m -0.8376,0.34564 -0.25221,0.0657 c -0.015,0.22099 -0.10301,0.3523 -0.23378,0.42179 0.0403,0.0747 0.0876,0.15821 0.13928,0.24377 0.23232,-0.0522 0.29608,-0.0388 0.29417,0.0585 -0.001,0.0425 -0.0462,0.0816 -0.12497,0.10806 v 9e-5 c -0.0155,0.005 -0.0338,0.0107 -0.0534,0.0162 0.0587,0.0881 0.12003,0.17245 0.18106,0.24551 0.0678,-0.0182 0.12727,-0.0338 0.1599,-0.0415 0.13873,-0.0329 0.16164,-0.0499 0.14374,-0.10677 -0.0117,-0.0372 -0.0825,-0.31643 -0.13751,-0.53943 z" />
        <path
           id="path858-0-2-0"
           style="font-size:19.05px;line-height:1.25;font-family:'Adobe Ming Std';-inkscape-font-specification:'Adobe Ming Std';letter-spacing:0px;word-spacing:0px;white-space:pre;shape-inside:url(#rect917);fill:#ffffff;stroke-width:0.0761593"
           d="m 346.22349,517.46283 c -1.28078,0.009 -2.08974,0.39298 -2.52544,1.18566 v 4.7e-4 c -0.4891,0.88984 -0.24107,2.15454 0.56883,2.90033 0.29266,0.26951 0.64908,0.46488 1.16022,0.63607 0.22794,0.0764 0.48561,0.16638 0.57251,0.20008 0.13291,0.0511 0.16142,0.05 0.17892,-0.007 0.0114,-0.0373 0.11138,-0.30748 0.19238,-0.52239 l 0.17156,-0.45461 -0.245,-0.0888 c -0.56574,0.71397 -1.29027,-0.51821 -1.5326,-0.93657 -0.16561,-0.28591 -0.21161,-0.51962 -0.16581,-0.84301 0.0444,-0.31379 0.11189,-0.4412 0.32596,-0.61554 0.54589,-0.4446 1.61641,-0.4465 3.83112,-6.2e-4 0.43503,-0.11471 0.94433,-0.18602 1.12024,-0.44134 -0.28289,-0.0744 -0.62352,-0.15282 -0.96038,-0.2204 -2.28002,-0.45744 -3.41135,-0.46083 -4.17292,-0.0124 -0.95591,0.56281 -0.98082,2.03501 -0.0483,2.85193 0.16884,0.14789 0.24144,0.23809 0.22894,0.28459 -0.0153,0.0572 -0.0345,0.0576 -0.12333,0.005 -0.36789,-0.22037 -0.80014,-0.8571 -0.90938,-1.33956 -0.0339,-0.14965 0.0984,-0.50723 -0.0475,-0.54613 l 6e-5,1.6e-4 c -0.4054,-0.10802 0.14269,-0.74657 0.44722,-1.08669 0.25454,-0.28432 0.5898,-0.46454 1.03888,-0.55864 0.88922,-0.18625 1.86002,-0.11065 3.92027,0.30527 0.26929,0.0544 0.50945,0.0984 0.72422,0.15048 0.0571,-0.0812 0.10071,-0.16898 0.12742,-0.26267 -0.10588,-0.0307 -0.20169,-0.0466 -0.27225,-0.0601 -0.12922,-0.0245 -0.54146,-0.10715 -0.91611,-0.18345 -0.8945,-0.18232 -1.36812,-0.25767 -1.92904,-0.30697 -0.27017,-0.0237 -0.52355,-0.0349 -0.76073,-0.0331 z m 5.15718,1.07905 c -0.0226,0.0728 -0.0509,0.14691 -0.0852,0.22152 0.0278,0.0134 0.0555,0.0269 0.0828,0.0408 1.0869,0.55253 1.67069,1.30826 1.77423,2.29682 0.0403,0.38431 -0.10699,1.07112 -0.31108,1.4505 -0.31147,0.57914 -0.82372,1.01452 -1.31193,1.11502 -0.32413,0.0667 -0.37702,0.0562 -0.34382,-0.0683 0.0142,-0.0527 0.0476,-0.0899 0.074,-0.0829 0.0267,0.007 0.127,-0.005 0.2229,-0.028 0.51489,-0.12078 0.96276,-0.50504 1.22685,-1.05249 0.16359,-0.33917 0.21008,-0.51587 0.22938,-0.87281 0.0249,-0.45996 -0.098,-0.96053 -0.33401,-1.3599 -0.31658,-0.53576 -0.73296,-0.92702 -1.38972,-1.24733 -0.0857,0.20833 -0.33099,0.52393 -0.42156,0.60144 0.47316,0.25363 0.79843,0.5657 1.03018,0.96632 0.22656,0.39167 0.29724,0.68682 0.26154,1.09169 -0.0609,0.691 -0.61799,1.31498 -1.1757,1.31598 -0.12503,3.3e-4 -0.33192,-0.0629 -0.88067,-0.26909 -0.39448,-0.14827 -0.72054,-0.26744 -0.72354,-0.26644 -0.0317,0.0157 -0.36364,1.01466 -0.34573,1.04076 0.0276,0.0405 1.35324,0.52716 1.64272,0.60306 0.65269,0.17124 1.39913,-0.12653 1.95064,-0.77815 0.31693,-0.37445 0.47456,-0.68134 0.61052,-1.18714 0.13888,-0.51742 0.14685,-0.81127 0.0369,-1.3649 -0.0676,-0.34049 -0.12145,-0.47896 -0.3115,-0.80116 -0.33953,-0.57568 -0.8146,-1.0062 -1.50823,-1.36534 z m -4.70163,2.93139 c -0.0245,-4.2e-4 -0.0405,7.7e-4 -0.0457,0.004 -0.0208,0.0121 -0.11191,0.22699 -0.20231,0.47775 h 6e-5 c -0.0904,0.25075 -0.15783,0.4687 -0.14983,0.4841 0.008,0.0154 0.11014,0.0856 0.22673,0.15606 0.11671,0.0703 0.25806,0.15676 0.31386,0.19266 0.1831,0.11663 0.17932,0.1213 0.3922,-0.48363 0.11068,-0.31472 0.21059,-0.60753 0.22209,-0.65073 0.0202,-0.0767 0.0116,-0.0799 -0.37214,-0.1383 -0.16205,-0.0247 -0.31157,-0.0404 -0.38498,-0.0417 z m 0.8941,0.0339 -0.24573,0.68345 c 0.10285,-0.38599 -0.2589,0.72258 -0.2749,0.77038 -0.0268,0.0798 0.0172,0.0959 0.13676,0.11856 l 0.166,0.0316 0.19262,-0.54371 c -0.18032,0.23907 0.23751,-0.66322 0.27321,-0.75822 l 0.0806,-0.21448 -0.16427,-0.0438 z m -1.96435,0.22284 c 0.0344,2.6e-4 0.092,0.0218 0.20272,0.065 0.25019,0.0973 0.2996,0.14463 0.2402,0.22743 -0.025,0.0345 -0.0843,0.041 -0.16421,0.0182 h -6e-5 c -0.0688,-0.0196 -0.18235,-0.0638 -0.25215,-0.098 -0.1075,-0.0527 -0.12141,-0.0757 -0.09,-0.14962 0.0179,-0.0421 0.0291,-0.0632 0.0635,-0.0629 z m 2.32709,0.0434 c -0.0134,6.7e-4 -0.0223,0.003 -0.0257,0.008 -0.0131,0.0191 -0.14535,0.27787 -0.22995,0.59533 l 1.9e-4,-2.2e-4 c -0.066,0.24755 -0.2158,0.58815 -0.2279,0.62155 -0.0172,0.0481 0.0243,0.0779 0.19332,0.13902 0.11836,0.0429 0.22163,0.0744 0.22863,0.0714 0.0139,-0.007 0.43634,-1.14532 0.46674,-1.25709 0.0135,-0.0501 -0.0277,-0.0785 -0.19508,-0.13409 -0.0897,-0.0299 -0.17004,-0.0462 -0.21026,-0.0442 z m 0.53519,0.0551 -0.23966,0.66456 c -0.25794,0.42567 -0.25505,0.71115 -0.27364,0.76825 -0.0321,0.098 0.0108,0.11571 0.13062,0.14761 l 0.16462,0.0439 0.21963,-0.62888 c -0.21515,0.27817 0.2539,-0.7079 0.2795,-0.7668 l 0.0598,-0.13795 -0.17043,-0.0453 z m 0.36885,0.2728 c -0.0449,6.4e-4 -0.0543,0.0261 -0.0713,0.0836 -0.017,0.0575 -0.1396,0.31428 -0.2129,0.58961 v 6e-5 c -0.0559,0.20985 -0.19179,0.51198 -0.20379,0.54528 -0.0169,0.0467 0.0262,0.0784 0.19124,0.14119 0.11718,0.0444 0.22044,0.077 0.22844,0.072 0.0158,-0.009 0.43703,-1.1426 0.46973,-1.26322 0.0152,-0.0564 -0.0184,-0.0767 -0.21183,-0.12834 -0.0982,-0.0262 -0.15466,-0.0407 -0.18958,-0.0402 z m 0.51047,0.99675 c 0.0547,10e-4 0.16905,0.0477 0.43207,0.15358 0.33014,0.13265 0.34875,0.14585 0.32615,0.23035 -0.0279,0.10483 -0.0257,0.10521 -0.49325,-0.083 v 0 c -0.33011,-0.13265 -0.34862,-0.14586 -0.32612,-0.23035 0.0122,-0.0459 0.0186,-0.0717 0.0612,-0.0706 z m 1.19925,0.15593 c 0.12633,-0.002 0.24391,0.12167 0.20416,0.27082 -0.0241,0.0904 -0.18108,0.17686 -0.27528,0.15176 -0.027,-0.007 -0.0743,-0.0568 -0.10519,-0.11007 l 3.8e-4,-5.4e-4 c -0.0676,-0.11678 -0.0566,-0.17271 0.0522,-0.26421 0.0385,-0.0324 0.0816,-0.0471 0.12375,-0.0478 z"
           sodipodi:nodetypes="ccccccccccsccccccccccccccscccccscscccccccccccccccccccccsccscccccccccsccccccccccsccccccssccccccccsccccccccccsccccccccsscccccsssccccsscccccs" />
      </g>
    </g>
    <path
       style="fill:#ffffff;fill-opacity:1;stroke:#ffffff;stroke-width:1.01058"
       d="m 211.8689,50.299272 c -45.73337,0.532652 -86.79083,19.858079 -102.05024,59.982298 l -21.133986,-9.03 13.428606,59.50744 56.41385,-29.66557 -24.92834,-10.65123 c 8.66562,-20.779051 32.70193,-42.503226 72.43949,-44.828502 z"
       id="path1570"
       sodipodi:nodetypes="cccccccc" />
  </g>
</svg>
